<svg width="54" height="106" viewBox="0 0 54 106" fill="none" xmlns="http://www.w3.org/2000/svg">
<path d="M33.6592 101.826C33.917 101.728 34.046 101.438 33.9473 101.181L32.3381 96.9781C32.2393 96.7202 31.9502 96.5912 31.6923 96.6899C31.4345 96.7887 31.3055 97.0778 31.4042 97.3357L32.8346 101.071L29.0991 102.502C28.8412 102.6 28.7122 102.889 28.811 103.147C28.9097 103.405 29.1988 103.534 29.4567 103.435L33.6592 101.826ZM52.801 1.42237C51.073 1.81757 49.3877 2.25163 47.7449 2.7226L48.0205 3.68387C49.6455 3.21799 51.3133 2.78843 53.0239 2.39721L52.801 1.42237ZM42.7742 4.30388C39.3698 5.4984 36.1703 6.86015 33.1761 8.36842L33.626 9.26151C36.5805 7.77321 39.7402 6.42819 43.1052 5.24748L42.7742 4.30388ZM28.6048 10.8773C25.512 12.723 22.6744 14.7368 20.0928 16.8899L20.7333 17.6578C23.2736 15.5392 26.0682 13.5556 29.1173 11.736L28.6048 10.8773ZM16.2218 20.4088C13.6703 22.939 11.4316 25.6203 9.50671 28.4137L10.3301 28.9811C12.2191 26.2399 14.4177 23.6062 16.9259 21.1188L16.2218 20.4088ZM6.75772 32.8582C5.03789 35.9782 3.68224 39.2041 2.69183 42.4871L3.64921 42.7759C4.61903 39.5612 5.94713 36.4002 7.63348 33.3409L6.75772 32.8582ZM1.45701 47.5732C0.816862 51.0339 0.572212 54.5286 0.723956 58.0024L1.72301 57.9587C1.57458 54.5612 1.81382 51.1421 2.44033 47.7551L1.45701 47.5732ZM1.25254 63.2126C1.80001 66.635 2.74045 70.0084 4.07429 73.2785L5.00023 72.9009C3.69521 69.7014 2.77541 66.4017 2.23999 63.0546L1.25254 63.2126ZM6.32074 78.0091C7.95253 81.0033 9.93825 83.8798 12.2778 86.5925L13.0351 85.9394C10.7412 83.2797 8.79616 80.4616 7.19881 77.5306L6.32074 78.0091ZM15.8855 90.3748C18.3283 92.6957 21.0648 94.8615 24.0949 96.8376L24.6412 96C21.6604 94.0561 18.9718 91.9277 16.5743 89.6499L15.8855 90.3748ZM28.589 99.5093C30.0911 100.322 31.6536 101.092 33.2766 101.816L33.6841 100.903C32.0839 100.189 30.5441 99.4299 29.0648 98.6298L28.589 99.5093ZM33.838 102.293C34.3537 102.096 34.6117 101.517 34.4142 101.002L31.1958 92.5968C30.9983 92.0811 30.4201 91.8231 29.9043 92.0206C29.3886 92.2181 29.1306 92.7963 29.3281 93.3121L32.1889 100.783L24.7179 103.644C24.2021 103.841 23.9441 104.42 24.1416 104.935C24.3391 105.451 24.9173 105.709 25.4331 105.512L33.838 102.293ZM52.6895 0.93496C50.9529 1.33214 49.2587 1.76846 47.6071 2.24196L48.1583 4.16451C49.7745 3.70116 51.4335 3.27386 53.1354 2.88462L52.6895 0.93496ZM42.6086 3.83208C39.1845 5.0335 35.9651 6.40361 32.9512 7.92188L33.851 9.70805C36.7856 8.22975 39.9254 6.89308 43.2708 5.71928L42.6086 3.83208ZM28.3486 10.4479C25.2339 12.3067 22.3748 14.3356 19.7726 16.5059L21.0536 18.0418C23.5732 15.9404 26.3463 13.9719 29.3735 12.1654L28.3486 10.4479ZM15.8697 20.0537C13.2967 22.6054 11.0379 25.3105 9.095 28.1299L10.7418 29.2648C12.6128 26.5497 14.7914 23.9398 17.278 21.4739L15.8697 20.0537ZM6.31984 32.6168C4.58327 35.7672 3.21384 39.0256 2.21314 42.3427L4.1279 42.9203C5.08742 39.7397 6.40175 36.6112 8.07136 33.5823L6.31984 32.6168ZM0.965356 47.4823C0.318384 50.9798 0.0710225 54.5124 0.224431 58.0242L2.22252 57.9369C2.07577 54.5774 2.31229 51.1961 2.93199 47.846L0.965356 47.4823ZM0.758818 63.2916C1.31231 66.7516 2.26308 70.1619 3.61132 73.4674L5.4632 72.712C4.17259 69.5479 3.2631 66.285 2.73371 62.9756L0.758818 63.2916ZM5.88171 78.2483C7.53071 81.2742 9.53677 84.1799 11.8992 86.9191L13.4137 85.6129C11.1427 82.9796 9.21798 80.1907 7.63785 77.2913L5.88171 78.2483ZM15.5411 90.7373C18.0065 93.0796 20.767 95.2642 23.8218 97.2564L24.9143 95.5812C21.9583 93.6533 19.2936 91.5438 16.9187 89.2874L15.5411 90.7373ZM28.3511 99.9491C29.8646 100.768 31.4385 101.543 33.0729 102.273L33.8878 100.446C32.299 99.7371 30.7706 98.984 29.3027 98.19L28.3511 99.9491Z" fill="url(#paint0_linear)"/>
<defs>
<linearGradient id="paint0_linear" x1="50.5177" y1="14.1659" x2="20.437" y2="94.0114" gradientUnits="userSpaceOnUse">
<stop stop-color="white" stop-opacity="0"/>
<stop offset="0.760417" stop-color="#5495E3"/>
<stop offset="1" stop-color="#36D1DC"/>
</linearGradient>
</defs>
</svg>
