<svg width="20" height="20" viewBox="0 0 20 20" fill="none" xmlns="http://www.w3.org/2000/svg">
<g opacity="0.7">
<path d="M14.5 5.50046C14.1451 5.14543 13.5694 5.14543 13.2144 5.50046L10.0003 8.71459L6.78616 5.50046C6.43119 5.14543 5.85556 5.14543 5.50053 5.50046C5.1455 5.85549 5.1455 6.43107 5.50053 6.7861L8.71465 10.0002L5.50053 13.2143C5.1455 13.5694 5.1455 14.1449 5.50053 14.5C5.67804 14.6775 5.91071 14.7663 6.14331 14.7663C6.37598 14.7663 6.60865 14.6776 6.7861 14.5L10.0002 11.2859L13.2143 14.5C13.3919 14.6775 13.6245 14.7663 13.8571 14.7663C14.0898 14.7663 14.3225 14.6776 14.5 14.5C14.855 14.1449 14.855 13.5694 14.5 13.2143L11.2859 10.0002L14.5 6.7861C14.8551 6.43107 14.8551 5.85549 14.5 5.50046Z" fill="#6E6F73"/>
</g>
</svg>
