<svg width="22" viewBox="0 0 20 16" fill="none" xmlns="http://www.w3.org/2000/svg">
<path d="M9.99996 2C14.4933 2 18.2316 4.58667 19.0158 8C18.2325 11.4133 14.4933 14 9.99996 14C5.50663 14 1.7683 11.4133 0.984131 8C1.76746 4.58667 5.50663 2 9.99996 2ZM9.99996 12.6667C11.6995 12.6664 13.3486 12.2045 14.6773 11.3568C16.0061 10.509 16.9357 9.32552 17.3141 8C16.9343 6.67554 16.0041 5.49334 14.6755 4.64668C13.3469 3.80003 11.6986 3.33902 9.99996 3.33902C8.30138 3.33902 6.65304 3.80003 5.32444 4.64668C3.99585 5.49334 3.0656 6.67554 2.6858 8C3.06421 9.32552 3.99386 10.509 5.32258 11.3568C6.65131 12.2045 8.30041 12.6664 9.99996 12.6667ZM9.99996 11C9.0054 11 8.05158 10.6839 7.34831 10.1213C6.64505 9.55871 6.24996 8.79565 6.24996 8C6.24996 7.20435 6.64505 6.44129 7.34831 5.87868C8.05158 5.31607 9.0054 5 9.99996 5C10.9945 5 11.9484 5.31607 12.6516 5.87868C13.3549 6.44129 13.75 7.20435 13.75 8C13.75 8.79565 13.3549 9.55871 12.6516 10.1213C11.9484 10.6839 10.9945 11 9.99996 11ZM9.99996 9.66667C10.5525 9.66667 11.0824 9.49107 11.4731 9.17851C11.8638 8.86595 12.0833 8.44203 12.0833 8C12.0833 7.55797 11.8638 7.13405 11.4731 6.82149C11.0824 6.50893 10.5525 6.33333 9.99996 6.33333C9.44743 6.33333 8.91753 6.50893 8.52683 6.82149C8.13612 7.13405 7.91663 7.55797 7.91663 8C7.91663 8.44203 8.13612 8.86595 8.52683 9.17851C8.91753 9.49107 9.44743 9.66667 9.99996 9.66667Z" fill="#9A9A9D"/>
</svg>
