<svg width="20" height="16" viewBox="0 0 20 16" fill="none" xmlns="http://www.w3.org/2000/svg">
<path d="M14.9017 12.8647C13.436 13.6084 11.7356 14.0023 10 14C5.50669 14 1.76836 11.4134 0.984192 8.00005C1.34255 6.44719 2.31888 5.02864 3.76752 3.95604L1.16003 1.87204L2.33919 0.928711L18.8384 14.1287L17.6592 15.0714L14.9009 12.8647H14.9017ZM4.94586 4.90004C3.81336 5.72377 3.02446 6.8059 2.68586 8.00005C2.9461 8.91102 3.46858 9.76081 4.21169 10.4818C4.95481 11.2027 5.89805 11.775 6.96632 12.1529C8.03459 12.5309 9.1984 12.7041 10.3651 12.6588C11.5318 12.6135 12.6692 12.351 13.6867 11.892L11.9967 10.54C11.2773 10.9026 10.4252 11.0588 9.58022 10.983C8.73525 10.9072 7.94756 10.604 7.34633 10.123C6.74511 9.64202 6.36605 9.01186 6.27133 8.33589C6.1766 7.65991 6.37184 6.97825 6.82502 6.40271L4.94586 4.90004ZM10.7617 9.55205L8.06002 7.39071C7.91175 7.69267 7.87685 8.02268 7.95961 8.34028C8.04238 8.65787 8.23921 8.94923 8.52596 9.17863C8.81271 9.40803 9.17691 9.5655 9.5739 9.63171C9.9709 9.69792 10.3834 9.67 10.7609 9.55138L10.7617 9.55205ZM17.3392 11.0614L16.1467 10.108C16.7038 9.47291 17.1003 8.75683 17.3142 8.00005C17.0877 7.20653 16.6619 6.45814 16.0626 5.80037C15.4634 5.14261 14.7032 4.5892 13.8283 4.17378C12.9533 3.75837 11.9819 3.48962 10.9731 3.38389C9.96434 3.27815 8.9392 3.33763 7.96002 3.55871L6.64502 2.50671C7.68419 2.18004 8.81669 2.00004 10 2.00004C14.4934 2.00004 18.2317 4.58671 19.0159 8.00005C18.7605 9.11051 18.1866 10.1584 17.3392 11.0614ZM9.76919 5.00538C10.2996 4.97915 10.831 5.04342 11.328 5.19392C11.825 5.34442 12.2764 5.57772 12.6521 5.87835C13.0279 6.17897 13.3196 6.54006 13.5077 6.93768C13.6958 7.3353 13.7761 7.76037 13.7434 8.18471L9.76836 5.00538H9.76919Z" fill="#9A9A9D"/>
</svg>
