<svg width="18" height="104" viewBox="0 0 18 104" fill="none" xmlns="http://www.w3.org/2000/svg">
<path d="M11.02 10.3L10.3989 9.51622L10.3917 9.52206L11.02 10.3ZM2.32 10.66L1.58285 11.3357L1.58285 11.3357L2.32 10.66ZM2.32 8.06L3.05715 8.73572L3.05715 8.73572L2.32 8.06ZM8.84 5.06L9.51828 4.32519L9.51706 4.32407L8.84 5.06ZM2.32 4.12L1.58285 4.79572L1.58285 4.79572L2.32 4.12ZM2.32 1.52L3.05715 2.19572L2.32 1.52ZM15.74 1.54L14.9893 2.20063L14.9966 2.20892L15.0041 2.21706L15.74 1.54ZM15.78 4.12L15.0274 3.46149L15.0274 3.4615L15.78 4.12ZM10.66 4.6L10.66 3.6L7.72652 3.6L10.0492 5.39178L10.66 4.6ZM11.72 5.94L12.6319 5.52964L12.6319 5.52964L11.72 5.94ZM11.08 7.74C11.08 8.67188 10.8032 9.19587 10.3989 9.51625L11.6411 11.0837C12.6501 10.2841 13.08 9.10146 13.08 7.74L11.08 7.74ZM10.3917 9.52206C9.95542 9.87441 9.16632 10.14 7.84 10.14L7.84 12.14C9.36701 12.14 10.6979 11.8456 11.6483 11.0779L10.3917 9.52206ZM7.84 10.14L3.52 10.14L3.52 12.14L7.84 12.14L7.84 10.14ZM3.52 10.14C3.24234 10.14 3.12899 10.0626 3.05715 9.98427L1.58285 11.3357C2.09768 11.8974 2.78433 12.14 3.52 12.14L3.52 10.14ZM3.05716 9.98428C2.97352 9.89304 2.88 9.72394 2.88 9.36L0.879999 9.36C0.879999 10.0894 1.07981 10.787 1.58285 11.3357L3.05716 9.98428ZM2.88 9.36C2.88 8.99606 2.97352 8.82696 3.05715 8.73572L1.58285 7.38428C1.07981 7.93304 0.879999 8.63061 0.879999 9.36L2.88 9.36ZM3.05715 8.73572C3.12899 8.65736 3.24234 8.58 3.52 8.58L3.52 6.58C2.78433 6.58 2.09768 6.82264 1.58285 7.38428L3.05715 8.73572ZM3.52 8.58L7.92 8.58L7.92 6.58L3.52 6.58L3.52 8.58ZM7.92 8.58C8.52057 8.58 9.15765 8.45391 9.65252 8.02777C10.176 7.57699 10.36 6.94974 10.36 6.34L8.36 6.34C8.36 6.45218 8.34348 6.50588 8.33743 6.52151C8.33372 6.5311 8.33672 6.5215 8.34748 6.51223C8.36235 6.49942 8.27943 6.58 7.92 6.58L7.92 8.58ZM10.36 6.34C10.36 5.56777 10.0978 4.86015 9.51828 4.3252L8.16172 5.7948C8.27552 5.89985 8.36 6.04556 8.36 6.34L10.36 6.34ZM9.51706 4.32407C8.95382 3.80589 8.2349 3.6 7.48 3.6L7.48 5.6C7.87176 5.6 8.05951 5.70077 8.16294 5.79593L9.51706 4.32407ZM7.48 3.6L3.52 3.6L3.52 5.6L7.48 5.6L7.48 3.6ZM3.52 3.6C3.24234 3.6 3.12899 3.52264 3.05715 3.44427L1.58285 4.79572C2.09768 5.35736 2.78433 5.6 3.52 5.6L3.52 3.6ZM3.05715 3.44427C2.97352 3.35304 2.88 3.18394 2.88 2.82L0.879999 2.82C0.879999 3.54939 1.07981 4.24696 1.58285 4.79572L3.05715 3.44427ZM2.88 2.82C2.88 2.45606 2.97352 2.28696 3.05715 2.19572L1.58285 0.844275C1.07981 1.39304 0.879999 2.09061 0.879999 2.82L2.88 2.82ZM3.05715 2.19572C3.12899 2.11736 3.24234 2.04 3.52 2.04L3.52 0.0399992C2.78433 0.0399992 2.09768 0.282636 1.58285 0.844275L3.05715 2.19572ZM3.52 2.04L14.6 2.04L14.6 0.0399997L3.52 0.0399992L3.52 2.04ZM14.6 2.04C14.7959 2.04 14.8965 2.09523 14.9893 2.20063L16.4907 0.879372C15.9968 0.318107 15.3374 0.0399997 14.6 0.0399997L14.6 2.04ZM15.0041 2.21706C15.1072 2.32912 15.2 2.5094 15.2 2.86L17.2 2.86C17.2 2.11727 16.9862 1.41755 16.4759 0.862943L15.0041 2.21706ZM15.2 2.86C15.2 3.1941 15.1144 3.36213 15.0274 3.46149L16.5326 4.77851C17.0056 4.23787 17.2 3.5659 17.2 2.86L15.2 2.86ZM15.0274 3.4615C14.9572 3.54178 14.8699 3.6 14.66 3.6L14.66 5.6C15.3834 5.6 16.0428 5.33822 16.5326 4.7785L15.0274 3.4615ZM14.66 3.6L10.66 3.6L10.66 5.6L14.66 5.6L14.66 3.6ZM10.0492 5.39178C10.3867 5.65215 10.6361 5.96821 10.8081 6.35036L12.6319 5.52964C12.3239 4.84513 11.8666 4.26785 11.2708 3.80822L10.0492 5.39178ZM10.8081 6.35036C10.9824 6.7378 11.08 7.19505 11.08 7.74L13.08 7.74C13.08 6.95161 12.9376 6.20886 12.6319 5.52964L10.8081 6.35036ZM10.98 21.0894L10.2794 20.3758L10.2729 20.3822L10.2664 20.3888L10.98 21.0894ZM2.3 21.7294L1.57664 22.4199L1.57736 22.4206L2.3 21.7294ZM2.28 19.3294L1.54006 18.6567L1.53264 18.6649L1.52539 18.6732L2.28 19.3294ZM3.36 18.8494L3.41872 19.8476L3.72245 17.9174L3.36 18.8494ZM2.24 17.9094L1.3848 18.4277L2.24 17.9094ZM2.24 14.4894L1.34996 14.0335L1.34551 14.0422L1.34123 14.051L2.24 14.4894ZM3.38 13.1894L2.85207 12.3401L2.83855 12.3485L2.8253 12.3573L3.38 13.1894ZM6.72 13.2694L7.37851 12.5168L7.37678 12.5153L6.72 13.2694ZM7.64 15.0294L6.66616 15.2566L7.64 15.0294ZM7.92 18.8094L6.92 18.8094L6.92 19.8094L7.92 19.8094L7.92 18.8094ZM9.16 18.4894L8.45289 17.7823L8.44149 17.7937L8.43046 17.8054L9.16 18.4894ZM8.92 15.0094L7.97549 15.3379L7.97745 15.3434L8.92 15.0094ZM9.12 13.4294L8.47981 12.6612L9.12 13.4294ZM10.78 13.3094L11.3208 12.4682L10.78 13.3094ZM11.28 13.8894L12.1693 13.432L12.1629 13.4196L12.1562 13.4075L11.28 13.8894ZM11.86 15.6494L12.8391 15.4462L12.8391 15.4462L11.86 15.6494ZM4.72 18.3494L4.04294 19.0853L4.05012 19.0919L4.05743 19.0984L4.72 18.3494ZM6.28 18.8094L6.28 19.8094L7.28 19.8094L7.28 18.8094L6.28 18.8094ZM6.04 16.6694L5.11391 17.0467L5.11982 17.0612L5.12619 17.0755L6.04 16.6694ZM4.52 16.4094L3.83768 15.6783L3.82508 15.6901L3.81289 15.7023L4.52 16.4094ZM11.08 17.7294C11.08 19.1091 10.7459 19.9178 10.2794 20.3758L11.6806 21.8029C12.6808 20.8209 13.08 19.3896 13.08 17.7294L11.08 17.7294ZM10.2664 20.3888C9.80403 20.8598 9.01055 21.1894 7.68 21.1894L7.68 23.1894C9.30945 23.1894 10.716 22.7857 11.6936 21.79L10.2664 20.3888ZM7.68 21.1894L3.5 21.1894L3.5 23.1894L7.68 23.1894L7.68 21.1894ZM3.5 21.1894C3.20911 21.1894 3.09117 21.1098 3.02264 21.0382L1.57736 22.4206C2.0955 22.9623 2.77755 23.1894 3.5 23.1894L3.5 21.1894ZM3.02335 21.0389C2.97127 20.9843 2.88 20.8491 2.88 20.4894L0.879998 20.4894C0.879998 21.1963 1.06873 21.8878 1.57664 22.4199L3.02335 21.0389ZM2.88 20.4894C2.88 20.2259 2.94946 20.0835 3.0346 19.9856L1.52539 18.6732C1.07721 19.1886 0.879998 19.8196 0.879998 20.4894L2.88 20.4894ZM3.01994 20.002C3.08494 19.9305 3.18521 19.8614 3.41872 19.8476L3.30128 17.8511C2.62813 17.8907 2.00839 18.1415 1.54006 18.6567L3.01994 20.002ZM3.72245 17.9174C3.44756 17.8105 3.24755 17.6424 3.0952 17.3911L1.3848 18.4277C1.76578 19.0563 2.31244 19.5149 2.99755 19.7814L3.72245 17.9174ZM3.0952 17.3911C2.94004 17.1351 2.84 16.7953 2.84 16.3294L0.839999 16.3294C0.839999 17.0901 1.00662 17.8037 1.3848 18.4277L3.0952 17.3911ZM2.84 16.3294C2.84 15.7832 2.94621 15.3225 3.13877 14.9278L1.34123 14.051C1.00045 14.7495 0.839999 15.5155 0.839999 16.3294L2.84 16.3294ZM3.13004 14.9452C3.33741 14.5404 3.60597 14.2406 3.9347 14.0214L2.8253 12.3573C2.19403 12.7782 1.70259 13.345 1.34996 14.0335L3.13004 14.9452ZM3.90793 14.0387C4.23379 13.8361 4.60236 13.7294 5.04 13.7294L5.04 11.7294C4.25098 11.7294 3.51288 11.9293 2.85207 12.3401L3.90793 14.0387ZM5.04 13.7294C5.57676 13.7294 5.87948 13.8634 6.06322 14.0235L7.37678 12.5153C6.73385 11.9553 5.91658 11.7294 5.04 11.7294L5.04 13.7294ZM6.0615 14.022C6.27427 14.2081 6.50658 14.5727 6.66616 15.2566L8.61384 14.8021C8.40009 13.8861 8.01907 13.0773 7.3785 12.5168L6.0615 14.022ZM6.66616 15.2566C6.82785 15.9496 6.92 16.943 6.92 18.2694L8.92 18.2694C8.92 16.8757 8.82548 15.7092 8.61384 14.8021L6.66616 15.2566ZM6.92 18.2694L6.92 18.8094L8.92 18.8094L8.92 18.2694L6.92 18.2694ZM7.92 19.8094L8.16 19.8094L8.16 17.8094L7.92 17.8094L7.92 19.8094ZM8.16 19.8094C8.74282 19.8094 9.4134 19.6812 9.88954 19.1733L8.43046 17.8054C8.46781 17.7656 8.49163 17.7653 8.45522 17.777C8.41369 17.7902 8.32213 17.8094 8.16 17.8094L8.16 19.8094ZM9.86711 19.1965C10.3611 18.7025 10.48 18.0115 10.48 17.4094L8.48 17.4094C8.48 17.5977 8.45957 17.7133 8.4412 17.7753C8.42381 17.834 8.41629 17.8189 8.45289 17.7823L9.86711 19.1965ZM10.48 17.4094C10.48 16.6829 10.2427 15.748 9.86255 14.6753L7.97745 15.3434C8.34394 16.3775 8.48 17.0425 8.48 17.4094L10.48 17.4094ZM9.8645 14.6809C9.77744 14.4306 9.76 14.2885 9.76 14.2294L7.76 14.2294C7.76 14.5969 7.84922 14.9748 7.9755 15.3379L9.8645 14.6809ZM9.76 14.2294C9.76 14.2061 9.76209 14.193 9.76308 14.188C9.76401 14.1834 9.76419 14.1847 9.76192 14.1897C9.7596 14.1949 9.75665 14.1996 9.75428 14.2027C9.75206 14.2056 9.75296 14.2036 9.76018 14.1976L8.47981 12.6612C7.99494 13.0652 7.76 13.622 7.76 14.2294L9.76 14.2294ZM9.76018 14.1976C9.78083 14.1804 9.84988 14.1294 10.06 14.1294L10.06 12.1294C9.49678 12.1294 8.93917 12.2784 8.47981 12.6612L9.76018 14.1976ZM10.06 14.1294C10.222 14.1294 10.2581 14.1627 10.2392 14.1506L11.3208 12.4682C10.9285 12.2161 10.4846 12.1294 10.06 12.1294L10.06 14.1294ZM10.2392 14.1506C10.2436 14.1534 10.3089 14.1989 10.4038 14.3713L12.1562 13.4075C11.9577 13.0466 11.6897 12.7054 11.3208 12.4682L10.2392 14.1506ZM10.3907 14.3467C10.5773 14.7094 10.7462 15.2038 10.8809 15.8526L12.8391 15.4462C12.6805 14.6817 12.4627 14.0026 12.1693 13.432L10.3907 14.3467ZM10.8809 15.8526C11.0145 16.4965 11.08 17.1217 11.08 17.7294L13.08 17.7294C13.08 16.9771 12.9988 16.2156 12.8391 15.4462L10.8809 15.8526ZM3.22 17.1694C3.22 17.9103 3.49035 18.5769 4.04294 19.0853L5.39706 17.6134C5.28298 17.5085 5.22 17.3885 5.22 17.1694L3.22 17.1694ZM4.05743 19.0984C4.61452 19.5912 5.30213 19.8094 6.04 19.8094L6.04 17.8094C5.7112 17.8094 5.51881 17.7209 5.38257 17.6004L4.05743 19.0984ZM6.04 19.8094L6.28 19.8094L6.28 17.8094L6.04 17.8094L6.04 19.8094ZM7.28 18.8094L7.28 18.4894L5.28 18.4894L5.28 18.8094L7.28 18.8094ZM7.28 18.4894C7.28 17.6219 7.20584 16.8303 6.95381 16.2632L5.12619 17.0755C5.19416 17.2284 5.28 17.6502 5.28 18.4894L7.28 18.4894ZM6.96609 16.2921C6.839 15.9801 6.63539 15.6738 6.31921 15.4492C5.9976 15.2207 5.6336 15.1294 5.28 15.1294L5.28 17.1294C5.28653 17.1294 5.2739 17.1301 5.2484 17.1227C5.22161 17.1148 5.19053 17.1007 5.16079 17.0796C5.09795 17.0349 5.09433 16.9986 5.11391 17.0467L6.96609 16.2921ZM5.28 15.1294C4.75317 15.1294 4.24572 15.2975 3.83768 15.6783L5.20232 17.1404C5.20541 17.1375 5.20641 17.1371 5.20549 17.1377C5.20455 17.1383 5.20423 17.1383 5.2057 17.1377C5.20771 17.137 5.22878 17.1294 5.28 17.1294L5.28 15.1294ZM3.81289 15.7023C3.40862 16.1065 3.22 16.6221 3.22 17.1694L5.22 17.1694C5.22 17.126 5.22675 17.1125 5.22515 17.1165C5.22465 17.1178 5.22368 17.1197 5.22268 17.1212C5.22175 17.1227 5.22256 17.121 5.22711 17.1165L3.81289 15.7023ZM11.02 33.4245L10.3899 32.6479L10.3827 32.6539L11.02 33.4245ZM2.32 33.8045L1.58284 34.4803L1.58284 34.4803L2.32 33.8045ZM2.32 31.2045L3.05715 31.8803L2.32 31.2045ZM8.96 30.4045L8.36 29.6045L8.3475 29.6139L8.3353 29.6237L8.96 30.4045ZM8.84 28.2045L9.51828 27.4697L9.51706 27.4686L8.84 28.2045ZM2.32 27.2645L1.58284 27.9403L2.32 27.2645ZM2.32 24.6645L3.05715 25.3403L2.32 24.6645ZM11.58 24.6845L10.8293 25.3452L10.8366 25.3535L10.8441 25.3616L11.58 24.6845ZM11.62 27.1845L10.8966 26.4941L10.889 26.5021L10.8815 26.5103L11.62 27.1845ZM10.52 27.6445L10.52 26.6445L7.28756 26.6445L9.95532 28.4698L10.52 27.6445ZM11.68 28.9845L12.5788 28.5461L11.68 28.9845ZM11.08 30.8045C11.08 31.7709 10.798 32.3169 10.39 32.648L11.65 34.2011C12.6553 33.3855 13.08 32.1849 13.08 30.8045L11.08 30.8045ZM10.3827 32.6539C9.94738 33.0139 9.1622 33.2845 7.84 33.2845L7.84 35.2845C9.37113 35.2845 10.7059 34.9818 11.6573 34.1952L10.3827 32.6539ZM7.84 33.2845L3.52 33.2845L3.52 35.2845L7.84 35.2845L7.84 33.2845ZM3.52 33.2845C3.24234 33.2845 3.12898 33.2072 3.05715 33.1288L1.58284 34.4803C2.09768 35.0419 2.78433 35.2845 3.52 35.2845L3.52 33.2845ZM3.05715 33.1288C2.97352 33.0376 2.88 32.8685 2.88 32.5045L0.879998 32.5045C0.879998 33.2339 1.07981 33.9315 1.58284 34.4803L3.05715 33.1288ZM2.88 32.5045C2.88 32.1406 2.97352 31.9715 3.05715 31.8803L1.58284 30.5288C1.07981 31.0776 0.879998 31.7751 0.879998 32.5045L2.88 32.5045ZM3.05715 31.8803C3.12898 31.8019 3.24234 31.7245 3.52 31.7245L3.52 29.7245C2.78433 29.7245 2.09768 29.9672 1.58284 30.5288L3.05715 31.8803ZM3.52 31.7245L7.68 31.7245L7.68 29.7245L3.52 29.7245L3.52 31.7245ZM7.68 31.7245C8.34619 31.7245 9.05233 31.6113 9.58469 31.1854L8.3353 29.6237C8.34168 29.6186 8.30991 29.6463 8.19746 29.6744C8.08476 29.7026 7.91692 29.7245 7.68 29.7245L7.68 31.7245ZM9.56 31.2045C10.1389 30.7704 10.36 30.1286 10.36 29.4845L8.36 29.4845C8.36 29.5855 8.3436 29.6243 8.34293 29.6258C8.34271 29.6263 8.34482 29.6216 8.35012 29.6149C8.35252 29.6118 8.3549 29.6093 8.35696 29.6073C8.35901 29.6053 8.36018 29.6044 8.36 29.6045L9.56 31.2045ZM10.36 29.4845C10.36 28.7123 10.0978 28.0047 9.51828 27.4697L8.16172 28.9393C8.27552 29.0444 8.36 29.1901 8.36 29.4845L10.36 29.4845ZM9.51706 27.4686C8.95382 26.9504 8.2349 26.7445 7.48 26.7445L7.48 28.7445C7.87176 28.7445 8.05951 28.8453 8.16294 28.9405L9.51706 27.4686ZM7.48 26.7445L3.52 26.7445L3.52 28.7445L7.48 28.7445L7.48 26.7445ZM3.52 26.7445C3.24234 26.7445 3.12899 26.6672 3.05715 26.5888L1.58284 27.9403C2.09768 28.5019 2.78433 28.7445 3.52 28.7445L3.52 26.7445ZM3.05715 26.5888C2.97352 26.4976 2.88 26.3285 2.88 25.9645L0.879998 25.9645C0.879998 26.6939 1.07981 27.3915 1.58284 27.9403L3.05715 26.5888ZM2.88 25.9645C2.88 25.6006 2.97352 25.4315 3.05715 25.3403L1.58284 23.9888C1.07981 24.5376 0.879998 25.2351 0.879998 25.9645L2.88 25.9645ZM3.05715 25.3403C3.12899 25.2619 3.24234 25.1845 3.52 25.1845L3.52 23.1845C2.78433 23.1845 2.09768 23.4272 1.58284 23.9888L3.05715 25.3403ZM3.52 25.1845L10.44 25.1845L10.44 23.1845L3.52 23.1845L3.52 25.1845ZM10.44 25.1845C10.6359 25.1845 10.7365 25.2398 10.8293 25.3452L12.3307 24.0239C11.8368 23.4626 11.1774 23.1845 10.44 23.1845L10.44 25.1845ZM10.8441 25.3616C10.9514 25.4782 11.04 25.6547 11.04 25.9845L13.04 25.9845C13.04 25.2477 12.8219 24.5575 12.3159 24.0075L10.8441 25.3616ZM11.04 25.9845C11.04 26.3013 10.9575 26.4303 10.8966 26.4941L12.3434 27.875C12.8425 27.3521 13.04 26.6811 13.04 25.9845L11.04 25.9845ZM10.8815 26.5103C10.8096 26.5891 10.7211 26.6445 10.52 26.6445L10.52 28.6445C11.2255 28.6445 11.8704 28.3933 12.3585 27.8588L10.8815 26.5103ZM9.95532 28.4698C10.3204 28.7196 10.5913 29.0335 10.7812 29.423L12.5788 28.5461C12.2354 27.8422 11.7329 27.2628 11.0847 26.8192L9.95532 28.4698ZM10.7812 29.423C10.9751 29.8204 11.08 30.275 11.08 30.8045L13.08 30.8045C13.08 30.0007 12.9182 29.242 12.5788 28.5461L10.7812 29.423ZM15.74 46.1939L15.0041 45.5168L14.99 45.5321L14.9766 45.548L15.74 46.1939ZM2.32 46.2339L1.58284 46.9096L2.32 46.2339ZM2.26 43.7339L1.50539 43.0777L1.49026 43.0951L1.47595 43.1132L2.26 43.7339ZM3.34 43.2139L3.42789 44.21L6.4931 43.9396L3.85449 42.3564L3.34 43.2139ZM2.24 41.9739L3.13881 41.5355L3.13443 41.5267L2.24 41.9739ZM2.48 37.9339L1.65056 37.3753L1.64403 37.385L1.63773 37.3949L2.48 37.9339ZM4.32 36.3939L4.74874 37.2973L4.32 36.3939ZM9.68 36.3739L10.1148 35.4733L10.1081 35.4702L9.68 36.3739ZM11.46 37.9139L12.3099 37.3869L12.3051 37.3793L11.46 37.9139ZM11.7 41.9139L10.801 41.4759L10.7967 41.4848L11.7 41.9139ZM10.68 43.1539L10.1135 42.3299L7.46032 44.1539L10.68 44.1539L10.68 43.1539ZM15.78 43.6139L16.5326 42.9554L16.5256 42.9474L16.5185 42.9396L15.78 43.6139ZM8.78 42.7139L8.16435 41.9259L8.15826 41.9306L8.15225 41.9355L8.78 42.7139ZM8.8 39.8539L9.42775 39.0755L8.8 39.8539ZM5.16 39.8539L4.55614 39.0568L4.54858 39.0625L4.54113 39.0684L5.16 39.8539ZM15.2 44.8939C15.2 45.2238 15.1114 45.4002 15.0041 45.5168L16.4759 46.871C16.9819 46.3209 17.2 45.6307 17.2 44.8939L15.2 44.8939ZM14.9766 45.548C14.8792 45.663 14.7819 45.7139 14.6 45.7139L14.6 47.7139C15.3515 47.7139 16.0141 47.4181 16.5034 46.8399L14.9766 45.548ZM14.6 45.7139L3.52 45.7139L3.52 47.7139L14.6 47.7139L14.6 45.7139ZM3.52 45.7139C3.24234 45.7139 3.12898 45.6365 3.05715 45.5582L1.58284 46.9096C2.09768 47.4713 2.78433 47.7139 3.52 47.7139L3.52 45.7139ZM3.05715 45.5582C2.96944 45.4625 2.88 45.297 2.88 44.9539L0.879997 44.9539C0.879997 45.6775 1.08389 46.3653 1.58284 46.9096L3.05715 45.5582ZM2.88 44.9539C2.88 44.6373 2.958 44.4633 3.04404 44.3546L1.47595 43.1132C1.05532 43.6445 0.879997 44.2838 0.879997 44.9539L2.88 44.9539ZM3.0146 44.3901C3.0905 44.3028 3.19884 44.2302 3.42789 44.21L3.2521 42.2178C2.5745 42.2776 1.96283 42.5517 1.50539 43.0777L3.0146 44.3901ZM3.85449 42.3564C3.57286 42.1874 3.33091 41.9294 3.13877 41.5355L1.34123 42.4123C1.68242 43.1118 2.1738 43.6804 2.8255 44.0714L3.85449 42.3564ZM3.13443 41.5267C2.94364 41.1451 2.84 40.7071 2.84 40.1939L0.839998 40.1939C0.839998 40.9874 1.00303 41.736 1.34557 42.4211L3.13443 41.5267ZM2.84 40.1939C2.84 39.5327 3.00501 38.9687 3.32227 38.473L1.63773 37.3949C1.10165 38.2325 0.839998 39.1751 0.839998 40.1939L2.84 40.1939ZM3.30944 38.4925C3.63889 38.0033 4.10658 37.6021 4.74874 37.2973L3.89125 35.4905C2.96009 35.9324 2.20111 36.5578 1.65056 37.3753L3.30944 38.4925ZM4.74874 37.2973C5.38118 36.9972 6.1308 36.8339 7.02 36.8339L7.02 34.8339C5.88253 34.8339 4.83215 35.044 3.89125 35.4905L4.74874 37.2973ZM7.02 36.8339C7.91516 36.8339 8.65033 36.9927 9.25191 37.2776L10.1081 35.4702C9.18966 35.0351 8.1515 34.8339 7.02 34.8339L7.02 36.8339ZM9.24525 37.2745C9.86953 37.5758 10.3123 37.9702 10.6149 38.4485L12.3051 37.3793C11.781 36.5509 11.0371 35.9186 10.1147 35.4734L9.24525 37.2745ZM10.6101 38.4408C10.9167 38.9354 11.08 39.5098 11.08 40.1939L13.08 40.1939C13.08 39.1713 12.8299 38.2257 12.3099 37.387L10.6101 38.4408ZM11.08 40.1939C11.08 40.6817 10.9825 41.1035 10.801 41.4759L12.599 42.3519C12.9242 41.6843 13.08 40.9594 13.08 40.1939L11.08 40.1939ZM10.7967 41.4848C10.6081 41.8819 10.3757 42.1496 10.1135 42.3299L11.2465 43.9779C11.8376 43.5716 12.2852 43.0126 12.6033 42.343L10.7967 41.4848ZM10.68 44.1539L14.66 44.1539L14.66 42.1539L10.68 42.1539L10.68 44.1539ZM14.66 44.1539C14.8842 44.1539 14.9755 44.2159 15.0415 44.2882L16.5185 42.9396C16.0245 42.3986 15.3691 42.1539 14.66 42.1539L14.66 44.1539ZM15.0274 44.2724C15.1104 44.3673 15.2 44.5391 15.2 44.8939L17.2 44.8939C17.2 44.1821 17.0096 43.5005 16.5326 42.9554L15.0274 44.2724ZM3.5 41.2739C3.5 42.1537 3.81505 42.9478 4.52435 43.5019L5.75564 41.9259C5.61161 41.8134 5.5 41.6474 5.5 41.2739L3.5 41.2739ZM4.52435 43.5019C5.19334 44.0246 6.05925 44.2139 6.98 44.2139L6.98 42.2139C6.30074 42.2139 5.93999 42.0699 5.75564 41.9259L4.52435 43.5019ZM6.98 44.2139C7.8891 44.2139 8.74869 44.0238 9.40775 43.4923L8.15225 41.9355C7.98464 42.0707 7.64423 42.2139 6.98 42.2139L6.98 44.2139ZM9.39564 43.5019C10.1049 42.9478 10.42 42.1537 10.42 41.2739L8.42 41.2739C8.42 41.6474 8.30838 41.8134 8.16435 41.9259L9.39564 43.5019ZM10.42 41.2739C10.42 40.4108 10.1146 39.6294 9.42775 39.0755L8.17225 40.6323C8.31204 40.7451 8.42 40.9103 8.42 41.2739L10.42 41.2739ZM9.42775 39.0755C8.77127 38.5461 7.92063 38.3539 7.02 38.3539L7.02 40.3539C7.66603 40.3539 8.00206 40.4951 8.17225 40.6323L9.42775 39.0755ZM7.02 38.3539C6.09643 38.3539 5.23258 38.5444 4.55614 39.0568L5.76386 40.651C5.96742 40.4968 6.34356 40.3539 7.02 40.3539L7.02 38.3539ZM4.54113 39.0684C3.8414 39.6197 3.5 40.3926 3.5 41.2739L5.5 41.2739C5.5 40.9552 5.5986 40.7814 5.77887 40.6394L4.54113 39.0684ZM2.04 50.4139L1.06282 50.2015L2.04 50.4139ZM2.68 48.7939L3.52663 49.3261L3.5526 49.2848L3.57442 49.2411L2.68 48.7939ZM3.16 48.3539L2.7342 47.4491L3.16 48.3539ZM4.8 48.4739L5.44019 47.7057L5.43571 47.702L4.8 48.4739ZM5.08 49.7739L4.12422 49.4798L4.11367 49.5141L4.10561 49.549L5.08 49.7739ZM4.86 50.4139L3.93836 50.0258L3.92528 50.0569L3.91431 50.0888L4.86 50.4139ZM4.52 51.5339L3.54981 51.2914L3.54761 51.3005L4.52 51.5339ZM4.54 53.6339L3.63382 54.0568L3.63953 54.069L3.64557 54.0811L4.54 53.6339ZM5.32 53.7939L4.56074 53.1431L4.53954 53.1678L4.52 53.1939L5.32 53.7939ZM5.54 53.2339L4.57847 52.9592L4.57235 52.9806L4.56719 53.0023L5.54 53.2339ZM5.86 51.8139L6.84061 52.01L6.84224 52.0015L5.86 51.8139ZM6.88 49.2339L6.13576 48.566L6.12677 48.576L6.11806 48.5863L6.88 49.2339ZM10.5 49.0139L11.1169 48.2268L11.1102 48.2216L11.1034 48.2165L10.5 49.0139ZM11.86 54.5739L10.8926 54.3205L10.8912 54.3261L11.86 54.5739ZM11.24 56.0939L10.3848 55.5756L10.3799 55.5836L10.3752 55.5918L11.24 56.0939ZM9.14 56.4139L8.52035 57.1988L8.52035 57.1988L9.14 56.4139ZM9.1 54.4339L10.0043 54.8609L10.0091 54.8506L9.1 54.4339ZM9.42 53.5739L8.47131 53.2577L8.46112 53.2882L8.45292 53.3194L9.42 53.5739ZM9.38 51.9339L8.48557 52.3811L8.49798 52.4059L8.51175 52.43L9.38 51.9339ZM8.46 52.0339L7.55626 51.6058L7.55208 51.6146L7.54808 51.6235L8.46 52.0339ZM8.06 53.5939L7.07742 53.4076L7.07501 53.4213L8.06 53.5939ZM7.02 56.3339L6.26742 55.6754L6.2627 55.6808L6.25806 55.6863L7.02 56.3339ZM2.7 55.9139L1.88718 56.4964L1.88897 56.4989L2.7 55.9139ZM2.84 52.6739C2.84 51.8246 2.90389 51.1474 3.01717 50.6263L1.06282 50.2015C0.909437 50.907 0.839998 51.7365 0.839998 52.6739L2.84 52.6739ZM3.01717 50.6263C3.12924 50.1108 3.30295 49.6819 3.52663 49.3261L1.83336 48.2617C1.47037 48.8392 1.21742 49.4903 1.06282 50.2015L3.01717 50.6263ZM3.57442 49.2411C3.56989 49.2502 3.56446 49.2588 3.55866 49.2665C3.5529 49.2741 3.54811 49.2789 3.54572 49.2811C3.54091 49.2855 3.54998 49.2756 3.58579 49.2587L2.7342 47.4491C2.34649 47.6315 1.99831 47.9212 1.78557 48.3467L3.57442 49.2411ZM3.58579 49.2587C3.66433 49.2218 3.76976 49.1939 3.92 49.1939L3.92 47.1939C3.51024 47.1939 3.109 47.2727 2.7342 47.4491L3.58579 49.2587ZM3.92 49.1939C4.10224 49.1939 4.15445 49.2377 4.16429 49.2458L5.43571 47.702C4.99221 47.3367 4.45776 47.1939 3.92 47.1939L3.92 49.1939ZM4.15981 49.2421C4.1736 49.2536 4.17877 49.26 4.1789 49.2602C4.17899 49.2603 4.17804 49.2591 4.17645 49.2566C4.17485 49.2541 4.17286 49.2507 4.17076 49.2464C4.1663 49.2372 4.16312 49.2277 4.16131 49.2196C4.15956 49.2117 4.16 49.2091 4.16 49.2139L6.16 49.2139C6.16 48.6024 5.89123 48.0816 5.44018 47.7057L4.15981 49.2421ZM4.16 49.2139C4.16 49.3244 4.14539 49.411 4.12422 49.4798L6.03578 50.068C6.12127 49.7901 6.16 49.5034 6.16 49.2139L4.16 49.2139ZM4.10561 49.549C4.08344 49.6451 4.0334 49.8001 3.93836 50.0258L5.78163 50.802C5.89993 50.521 5.99656 50.2494 6.05439 49.9988L4.10561 49.549ZM3.91431 50.0888C3.76144 50.5335 3.63882 50.9355 3.54986 51.2914L5.49014 51.7764C5.56118 51.4923 5.66522 51.1476 5.80568 50.739L3.91431 50.0888ZM3.54761 51.3005C3.44281 51.7372 3.4 52.2422 3.4 52.7939L5.4 52.7939C5.4 52.3323 5.43719 51.9973 5.49239 51.7673L3.54761 51.3005ZM3.4 52.7939C3.4 53.2188 3.45167 53.6665 3.63382 54.0568L5.44618 53.211C5.44696 53.2127 5.43384 53.1842 5.42139 53.1095C5.40914 53.036 5.4 52.9327 5.4 52.7939L3.4 52.7939ZM3.64557 54.0811C3.86574 54.5215 4.30394 54.9539 4.98 54.9539L4.98 52.9539C5.09138 52.9539 5.2153 52.9904 5.31817 53.0652C5.40873 53.131 5.43786 53.1936 5.43442 53.1867L3.64557 54.0811ZM4.98 54.9539C5.40509 54.9539 5.83036 54.7801 6.12 54.3939L4.52 53.1939C4.57147 53.1253 4.64861 53.0564 4.7492 53.0091C4.84663 52.9632 4.93111 52.9539 4.98 52.9539L4.98 54.9539ZM6.07925 54.4447C6.3318 54.1501 6.44618 53.7454 6.5128 53.4655L4.56719 53.0023C4.54047 53.1145 4.51817 53.1828 4.50425 53.2183C4.49764 53.2351 4.49617 53.2361 4.50165 53.2261C4.50648 53.2173 4.52463 53.1852 4.56074 53.1431L6.07925 54.4447ZM6.50152 53.5086C6.59368 53.1861 6.70704 52.6777 6.84058 52.01L4.87942 51.6178C4.74629 52.2834 4.64631 52.7217 4.57847 52.9592L6.50152 53.5086ZM6.84224 52.0015C7.05701 50.8771 7.35482 50.2193 7.64194 49.8816L6.11806 48.5863C5.49851 49.3151 5.11632 50.3773 4.87776 51.6263L6.84224 52.0015ZM7.62424 49.9018C7.86314 49.6356 8.22146 49.4539 8.84 49.4539L8.84 47.4539C7.77854 47.4539 6.83019 47.7922 6.13576 48.566L7.62424 49.9018ZM8.84 49.4539C9.23344 49.4539 9.5753 49.5682 9.89656 49.8113L11.1034 48.2165C10.438 47.7129 9.67322 47.4539 8.84 47.4539L8.84 49.4539ZM9.88312 49.801C10.223 50.0673 10.5138 50.4472 10.738 50.9811L12.582 50.2067C12.2462 49.4073 11.7637 48.7338 11.1169 48.2268L9.88312 49.801ZM10.738 50.9811C10.9597 51.5089 11.08 52.1213 11.08 52.8339L13.08 52.8339C13.08 51.8932 12.9203 51.0123 12.582 50.2067L10.738 50.9811ZM11.08 52.8339C11.08 53.3515 11.0169 53.8462 10.8926 54.3205L12.8274 54.8273C12.9965 54.1816 13.08 53.5163 13.08 52.8339L11.08 52.8339ZM10.8912 54.3261C10.7653 54.8182 10.5935 55.2312 10.3848 55.5756L12.0952 56.6122C12.4198 56.0766 12.6613 55.4763 12.8288 54.8217L10.8912 54.3261ZM10.3752 55.5918C10.3398 55.6528 10.3134 55.6691 10.2986 55.677C10.2785 55.6877 10.2175 55.7139 10.08 55.7139L10.08 57.7139C10.9199 57.7139 11.6622 57.3583 12.1048 56.596L10.3752 55.5918ZM10.08 55.7139C9.89465 55.7139 9.80957 55.6684 9.75964 55.629L8.52035 57.1988C8.97709 57.5594 9.51868 57.7139 10.08 57.7139L10.08 55.7139ZM9.75964 55.629C9.74292 55.6158 9.73617 55.6081 9.73541 55.6072C9.7349 55.6066 9.73914 55.6115 9.74457 55.6221C9.7501 55.6329 9.75456 55.645 9.75732 55.6568C9.76003 55.6683 9.76 55.6748 9.76 55.6739L7.76 55.6739C7.76 56.3068 8.05437 56.8309 8.52035 57.1988L9.75964 55.629ZM9.76 55.6739C9.76 55.5324 9.81033 55.2716 10.0042 54.8609L8.19575 54.0069C7.93634 54.5562 7.76 55.1221 7.76 55.6739L9.76 55.6739ZM10.0091 54.8506C10.1721 54.4948 10.3018 54.1526 10.3871 53.8284L8.45292 53.3194C8.4049 53.5019 8.32122 53.733 8.19093 54.0173L10.0091 54.8506ZM10.3687 53.8901C10.4915 53.5216 10.54 53.1226 10.54 52.7139L8.54 52.7139C8.54 52.9718 8.50848 53.1462 8.47131 53.2577L10.3687 53.8901ZM10.54 52.7139C10.54 52.294 10.4762 51.8367 10.2482 51.4378L8.51175 52.43C8.50194 52.4129 8.51021 52.4202 8.52039 52.4698C8.53057 52.5195 8.54 52.5984 8.54 52.7139L10.54 52.7139ZM10.2744 51.4867C10.1684 51.2747 10.0054 51.0557 9.7597 50.8919C9.5077 50.7239 9.22832 50.6539 8.96 50.6539L8.96 52.6539C8.87835 52.6539 8.76229 52.6306 8.6503 52.556C8.54456 52.4855 8.49822 52.4064 8.48557 52.3811L10.2744 51.4867ZM8.96 50.6539C8.23436 50.6539 7.77999 51.1335 7.55626 51.6058L9.36374 52.462C9.37739 52.4332 9.36018 52.4842 9.28008 52.5451C9.18586 52.6167 9.06738 52.6539 8.96 52.6539L8.96 50.6539ZM7.54808 51.6235C7.37285 52.0129 7.22218 52.6448 7.07751 53.4076L9.04248 53.7802C9.19115 52.9964 9.30715 52.5882 9.37192 52.4443L7.54808 51.6235ZM7.07501 53.4213C6.85704 54.665 6.54903 55.3536 6.26742 55.6754L7.77257 56.9924C8.4243 56.2476 8.80962 55.1095 9.04499 53.7665L7.07501 53.4213ZM6.25806 55.6863C6.039 55.944 5.68933 56.1339 5.04 56.1339L5.04 58.1339C6.124 58.1339 7.09433 57.7905 7.78194 56.9816L6.25806 55.6863ZM5.04 56.1339C4.39934 56.1339 3.91647 55.891 3.51103 55.3289L1.88897 56.4989C2.65686 57.5635 3.73399 58.1339 5.04 58.1339L5.04 56.1339ZM3.51281 55.3314C3.09981 54.7551 2.84 53.9028 2.84 52.6739L0.839998 52.6739C0.839998 54.1651 1.15352 55.4727 1.88718 56.4964L3.51281 55.3314ZM11.02 67.8586L10.3989 67.0748L10.3917 67.0806L11.02 67.8586ZM2.32 68.2186L1.58284 68.8943L2.32 68.2186ZM2.32 65.6186L3.05715 66.2943L2.32 65.6186ZM8.84 62.6186L9.51828 61.8838L9.51705 61.8827L8.84 62.6186ZM2.32 61.6786L1.58284 62.3543L2.32 61.6786ZM2.32 59.0786L3.05715 59.7543L2.32 59.0786ZM15.74 59.0986L14.9893 59.7592L14.9966 59.7675L15.0041 59.7756L15.74 59.0986ZM15.78 61.6786L15.0274 61.0201L15.0274 61.0201L15.78 61.6786ZM10.66 62.1586L10.66 61.1586L7.72651 61.1586L10.0492 62.9504L10.66 62.1586ZM11.72 63.4986L12.6319 63.0882L12.6319 63.0882L11.72 63.4986ZM11.08 65.2986C11.08 66.2305 10.8032 66.7545 10.3989 67.0749L11.6411 68.6423C12.6501 67.8427 13.08 66.66 13.08 65.2986L11.08 65.2986ZM10.3917 67.0806C9.95541 67.433 9.16632 67.6986 7.84 67.6986L7.84 69.6986C9.36701 69.6986 10.6979 69.4042 11.6483 68.6365L10.3917 67.0806ZM7.84 67.6986L3.52 67.6986L3.52 69.6986L7.84 69.6986L7.84 67.6986ZM3.52 67.6986C3.24234 67.6986 3.12898 67.6212 3.05715 67.5429L1.58284 68.8943C2.09768 69.456 2.78433 69.6986 3.52 69.6986L3.52 67.6986ZM3.05715 67.5429C2.97352 67.4516 2.88 67.2825 2.88 66.9186L0.879996 66.9186C0.879996 67.648 1.07981 68.3455 1.58284 68.8943L3.05715 67.5429ZM2.88 66.9186C2.88 66.5546 2.97352 66.3856 3.05715 66.2943L1.58284 64.9429C1.07981 65.4916 0.879996 66.1892 0.879996 66.9186L2.88 66.9186ZM3.05715 66.2943C3.12898 66.216 3.24234 66.1386 3.52 66.1386L3.52 64.1386C2.78433 64.1386 2.09768 64.3812 1.58284 64.9429L3.05715 66.2943ZM3.52 66.1386L7.92 66.1386L7.92 64.1386L3.52 64.1386L3.52 66.1386ZM7.92 66.1386C8.52056 66.1386 9.15765 66.0125 9.65252 65.5864C10.176 65.1356 10.36 64.5083 10.36 63.8986L8.36 63.8986C8.36 64.0108 8.34348 64.0645 8.33743 64.0801C8.33372 64.0897 8.33671 64.0801 8.34748 64.0708C8.36235 64.058 8.27943 64.1386 7.92 64.1386L7.92 66.1386ZM10.36 63.8986C10.36 63.1264 10.0978 62.4187 9.51828 61.8838L8.16172 63.3534C8.27551 63.4584 8.36 63.6042 8.36 63.8986L10.36 63.8986ZM9.51705 61.8827C8.95382 61.3645 8.2349 61.1586 7.48 61.1586L7.48 63.1586C7.87176 63.1586 8.05951 63.2594 8.16294 63.3545L9.51705 61.8827ZM7.48 61.1586L3.52 61.1586L3.52 63.1586L7.48 63.1586L7.48 61.1586ZM3.52 61.1586C3.24234 61.1586 3.12898 61.0812 3.05715 61.0029L1.58284 62.3543C2.09768 62.916 2.78433 63.1586 3.52 63.1586L3.52 61.1586ZM3.05715 61.0029C2.97352 60.9116 2.88 60.7425 2.88 60.3786L0.879997 60.3786C0.879996 61.108 1.07981 61.8055 1.58284 62.3543L3.05715 61.0029ZM2.88 60.3786C2.88 60.0147 2.97352 59.8455 3.05715 59.7543L1.58284 58.4029C1.07981 58.9516 0.879997 59.6492 0.879997 60.3786L2.88 60.3786ZM3.05715 59.7543C3.12898 59.676 3.24234 59.5986 3.52 59.5986L3.52 57.5986C2.78433 57.5986 2.09768 57.8412 1.58284 58.4029L3.05715 59.7543ZM3.52 59.5986L14.6 59.5986L14.6 57.5986L3.52 57.5986L3.52 59.5986ZM14.6 59.5986C14.7959 59.5986 14.8965 59.6538 14.9893 59.7592L16.4907 58.438C15.9968 57.8767 15.3374 57.5986 14.6 57.5986L14.6 59.5986ZM15.0041 59.7756C15.1072 59.8877 15.2 60.068 15.2 60.4186L17.2 60.4186C17.2 59.6759 16.9862 58.9761 16.4759 58.4215L15.0041 59.7756ZM15.2 60.4186C15.2 60.7527 15.1144 60.9207 15.0274 61.0201L16.5326 62.3371C17.0056 61.7965 17.2 61.1245 17.2 60.4186L15.2 60.4186ZM15.0274 61.0201C14.9572 61.1004 14.8699 61.1586 14.66 61.1586L14.66 63.1586C15.3834 63.1586 16.0428 62.8968 16.5326 62.3371L15.0274 61.0201ZM14.66 61.1586L10.66 61.1586L10.66 63.1586L14.66 63.1586L14.66 61.1586ZM10.0492 62.9504C10.3867 63.2107 10.6361 63.5268 10.8081 63.909L12.6319 63.0882C12.3239 62.4037 11.8666 61.8264 11.2708 61.3668L10.0492 62.9504ZM10.8081 63.909C10.9824 64.2964 11.08 64.7536 11.08 65.2986L13.08 65.2986C13.08 64.5102 12.9376 63.7675 12.6319 63.0882L10.8081 63.909ZM10.98 78.648L10.2794 77.9344L10.2729 77.9408L10.2664 77.9474L10.98 78.648ZM2.3 79.288L1.57664 79.9784L1.57735 79.9792L2.3 79.288ZM2.28 76.888L1.54006 76.2153L1.53263 76.2235L1.52539 76.2318L2.28 76.888ZM3.36 76.408L3.41872 77.4062L3.72244 75.476L3.36 76.408ZM2.24 75.468L1.3848 75.9863L1.3848 75.9863L2.24 75.468ZM2.24 72.048L1.34995 71.5921L1.34551 71.6008L1.34123 71.6095L2.24 72.048ZM3.38 70.748L2.85206 69.8987L2.83854 69.9071L2.8253 69.9159L3.38 70.748ZM6.72 70.828L7.3785 70.0754L7.37678 70.0739L6.72 70.828ZM7.64 72.588L6.66616 72.8152L7.64 72.588ZM7.92 76.368L6.92 76.368L6.92 77.368L7.92 77.368L7.92 76.368ZM9.16 76.048L8.45289 75.3409L8.44149 75.3523L8.43046 75.364L9.16 76.048ZM8.92 72.568L7.97548 72.8965L7.97745 72.902L8.92 72.568ZM9.12 70.988L8.47981 70.2197L9.12 70.988ZM10.78 70.868L11.3208 70.0268L10.78 70.868ZM11.28 71.448L12.1693 70.9906L12.1629 70.9782L12.1562 70.966L11.28 71.448ZM11.86 73.208L12.8391 73.0048L11.86 73.208ZM4.72 75.908L4.04294 76.6439L4.05012 76.6505L4.05742 76.657L4.72 75.908ZM6.28 76.368L6.28 77.368L7.28 77.368L7.28 76.368L6.28 76.368ZM6.04 74.228L5.1139 74.6053L5.11982 74.6198L5.12619 74.6341L6.04 74.228ZM4.52 73.968L3.83768 73.2369L3.82508 73.2487L3.81289 73.2609L4.52 73.968ZM11.08 75.288C11.08 76.6677 10.7459 77.4764 10.2794 77.9344L11.6806 79.3615C12.6808 78.3795 13.08 76.9482 13.08 75.288L11.08 75.288ZM10.2664 77.9474C9.80403 78.4183 9.01054 78.748 7.68 78.748L7.68 80.748C9.30945 80.748 10.716 80.3443 11.6936 79.3486L10.2664 77.9474ZM7.68 78.748L3.5 78.748L3.5 80.748L7.68 80.748L7.68 78.748ZM3.5 78.748C3.20911 78.748 3.09116 78.6684 3.02264 78.5967L1.57735 79.9792C2.0955 80.5209 2.77755 80.748 3.5 80.748L3.5 78.748ZM3.02335 78.5975C2.97126 78.5429 2.88 78.4077 2.88 78.048L0.879996 78.048C0.879996 78.7549 1.06873 79.4463 1.57664 79.9784L3.02335 78.5975ZM2.88 78.048C2.88 77.7845 2.94946 77.6421 3.0346 77.5442L1.52539 76.2318C1.0772 76.7472 0.879996 77.3782 0.879996 78.048L2.88 78.048ZM3.01994 77.5606C3.08494 77.4891 3.1852 77.42 3.41872 77.4062L3.30127 75.4097C2.62812 75.4493 2.00839 75.7001 1.54006 76.2153L3.01994 77.5606ZM3.72244 75.476C3.44756 75.3691 3.24754 75.201 3.09519 74.9497L1.3848 75.9863C1.76578 76.6149 2.31244 77.0735 2.99755 77.34L3.72244 75.476ZM3.09519 74.9497C2.94004 74.6937 2.84 74.3539 2.84 73.888L0.839997 73.888C0.839997 74.6487 1.00662 75.3623 1.3848 75.9863L3.09519 74.9497ZM2.84 73.888C2.84 73.3418 2.94621 72.8811 3.13877 72.4864L1.34123 71.6095C1.00045 72.3081 0.839997 73.0741 0.839997 73.888L2.84 73.888ZM3.13004 72.5038C3.33741 72.099 3.60596 71.7992 3.9347 71.58L2.8253 69.9159C2.19403 70.3368 1.70258 70.9036 1.34995 71.5921L3.13004 72.5038ZM3.90793 71.5973C4.23378 71.3947 4.60235 71.288 5.04 71.288L5.04 69.288C4.25097 69.288 3.51288 69.4879 2.85206 69.8987L3.90793 71.5973ZM5.04 71.288C5.57675 71.288 5.87948 71.422 6.06322 71.5821L7.37678 70.0739C6.73385 69.5139 5.91657 69.288 5.04 69.288L5.04 71.288ZM6.06149 71.5805C6.27426 71.7667 6.50658 72.1313 6.66616 72.8152L8.61384 72.3607C8.40008 71.4446 8.01906 70.6359 7.3785 70.0754L6.06149 71.5805ZM6.66616 72.8152C6.82785 73.5082 6.92 74.5016 6.92 75.828L8.92 75.828C8.92 74.4343 8.82548 73.2678 8.61384 72.3607L6.66616 72.8152ZM6.92 75.828L6.92 76.368L8.92 76.368L8.92 75.828L6.92 75.828ZM7.92 77.368L8.16 77.368L8.16 75.368L7.92 75.368L7.92 77.368ZM8.16 77.368C8.74282 77.368 9.4134 77.2398 9.88953 76.7319L8.43046 75.364C8.46781 75.3242 8.49163 75.3239 8.45522 75.3355C8.41369 75.3488 8.32213 75.368 8.16 75.368L8.16 77.368ZM9.8671 76.7551C10.3611 76.2611 10.48 75.57 10.48 74.968L8.48 74.968C8.48 75.1563 8.45957 75.2719 8.4412 75.3339C8.42381 75.3926 8.41629 75.3775 8.45289 75.3409L9.8671 76.7551ZM10.48 74.968C10.48 74.2415 10.2427 73.3065 9.86255 72.2339L7.97745 72.902C8.34394 73.9361 8.48 74.6011 8.48 74.968L10.48 74.968ZM9.86449 72.2394C9.77744 71.9892 9.76 71.8471 9.76 71.788L7.76 71.788C7.76 72.1555 7.84922 72.5334 7.9755 72.8965L9.86449 72.2394ZM9.76 71.788C9.76 71.7647 9.76208 71.7516 9.76308 71.7466C9.764 71.742 9.76418 71.7433 9.76192 71.7483C9.75959 71.7535 9.75665 71.7582 9.75428 71.7613C9.75206 71.7642 9.75296 71.7622 9.76018 71.7562L8.47981 70.2197C7.99493 70.6238 7.76 71.1806 7.76 71.788L9.76 71.788ZM9.76018 71.7562C9.78083 71.739 9.84988 71.688 10.06 71.688L10.06 69.688C9.49678 69.688 8.93917 69.837 8.47981 70.2197L9.76018 71.7562ZM10.06 71.688C10.222 71.688 10.2581 71.7213 10.2392 71.7091L11.3208 70.0268C10.9285 69.7747 10.4846 69.688 10.06 69.688L10.06 71.688ZM10.2392 71.7091C10.2436 71.712 10.3089 71.7574 10.4038 71.9299L12.1562 70.966C11.9577 70.6052 11.6897 70.264 11.3208 70.0268L10.2392 71.7091ZM10.3907 71.9053C10.5773 72.268 10.7462 72.7624 10.8809 73.4112L12.8391 73.0048C12.6805 72.2403 12.4627 71.5612 12.1693 70.9906L10.3907 71.9053ZM10.8809 73.4112C11.0145 74.0551 11.08 74.6803 11.08 75.288L13.08 75.288C13.08 74.5357 12.9988 73.7742 12.8391 73.0048L10.8809 73.4112ZM3.22 74.728C3.22 75.4688 3.49034 76.1355 4.04294 76.6439L5.39705 75.172C5.28298 75.0671 5.22 74.9471 5.22 74.728L3.22 74.728ZM4.05742 76.657C4.61452 77.1498 5.30213 77.368 6.04 77.368L6.04 75.368C5.71119 75.368 5.51881 75.2795 5.38257 75.159L4.05742 76.657ZM6.04 77.368L6.28 77.368L6.28 75.368L6.04 75.368L6.04 77.368ZM7.28 76.368L7.28 76.048L5.28 76.048L5.28 76.368L7.28 76.368ZM7.28 76.048C7.28 75.1805 7.20584 74.3889 6.95381 73.8218L5.12619 74.6341C5.19416 74.787 5.28 75.2088 5.28 76.048L7.28 76.048ZM6.96609 73.8507C6.839 73.5387 6.63539 73.2324 6.3192 73.0078C5.9976 72.7793 5.6336 72.688 5.28 72.688L5.28 74.688C5.28653 74.688 5.2739 74.6887 5.24839 74.6813C5.2216 74.6734 5.19053 74.6593 5.16079 74.6381C5.09794 74.5935 5.09433 74.5572 5.1139 74.6053L6.96609 73.8507ZM5.28 72.688C4.75316 72.688 4.24572 72.8561 3.83768 73.2369L5.20231 74.699C5.20541 74.6961 5.20641 74.6957 5.20549 74.6963C5.20454 74.6969 5.20423 74.6969 5.2057 74.6963C5.20771 74.6956 5.22878 74.688 5.28 74.688L5.28 72.688ZM3.81289 73.2609C3.40862 73.6651 3.22 74.1807 3.22 74.728L5.22 74.728C5.22 74.6846 5.22675 74.6711 5.22515 74.6751C5.22465 74.6764 5.22367 74.6783 5.22268 74.6798C5.22174 74.6813 5.22255 74.6796 5.2271 74.6751L3.81289 73.2609ZM4.76 91.5631L5.48083 92.2562L5.4815 92.2555L4.76 91.5631ZM2.42 91.6031L3.09828 90.8683L3.0905 90.8611L3.08257 90.8541L2.42 91.6031ZM2.4 89.3631L1.67526 88.6741L1.66448 88.6854L1.65406 88.6971L2.4 89.3631ZM6.26 85.3031L6.98473 85.9922L8.59056 84.3031L6.26 84.3031L6.26 85.3031ZM2.32 84.7831L3.09794 84.1548L3.09189 84.1473L3.0857 84.1399L2.32 84.7831ZM2.32 82.2431L1.55429 81.5999L1.5481 81.6073L1.54206 81.6148L2.32 82.2431ZM15.78 82.2431L16.5579 81.6148L16.5519 81.6073L16.5457 81.5999L15.78 82.2431ZM15.78 84.7831L15.0143 84.1399L15.0081 84.1473L15.0021 84.1548L15.78 84.7831ZM7.76 85.3031L7.76 84.3031L5.31805 84.3031L7.0586 86.0159L7.76 85.3031ZM11.52 89.0031L10.8186 89.7159L10.8269 89.724L11.52 89.0031ZM11.54 91.2831L10.8475 90.5617L10.8327 90.5759L10.8186 90.5906L11.54 91.2831ZM9.3 91.2631L8.58963 91.967L8.59289 91.9702L9.3 91.2631ZM7.14 89.0831L7.85035 88.3793L7.12856 87.6508L6.41849 88.3907L7.14 89.0831ZM4.03916 90.87C3.87495 91.0408 3.74118 91.0831 3.6 91.0831L3.6 93.0831C4.33882 93.0831 4.97838 92.7788 5.48083 92.2562L4.03916 90.87ZM3.6 91.0831C3.43056 91.0831 3.2748 91.0313 3.09828 90.8683L1.74172 92.3379C2.25852 92.815 2.88944 93.0831 3.6 93.0831L3.6 91.0831ZM3.08257 90.8541C2.93783 90.7261 2.9 90.6202 2.9 90.4831L0.899996 90.4831C0.899996 91.2261 1.20883 91.8668 1.75742 92.3521L3.08257 90.8541ZM2.9 90.4831C2.9 90.4288 2.91972 90.2825 3.14593 90.0291L1.65406 88.6971C1.21361 89.1904 0.899996 89.7908 0.899996 90.4831L2.9 90.4831ZM3.12473 90.0522L6.98473 85.9922L5.53527 84.6141L1.67526 88.6741L3.12473 90.0522ZM6.26 84.3031L3.56 84.3031L3.56 86.3031L6.26 86.3031L6.26 84.3031ZM3.56 84.3031C3.24002 84.3031 3.14527 84.2134 3.09794 84.1548L1.54206 85.4115C2.05473 86.0462 2.78664 86.3031 3.56 86.3031L3.56 84.3031ZM3.0857 84.1399C2.98125 84.0156 2.9 83.8351 2.9 83.5231L0.899996 83.5231C0.899996 84.2245 1.09874 84.884 1.55429 85.4263L3.0857 84.1399ZM2.9 83.5231C2.9 83.2121 2.9811 83.0161 3.09794 82.8715L1.54206 81.6148C1.09889 82.1635 0.899996 82.8208 0.899996 83.5231L2.9 83.5231ZM3.0857 82.8863C3.12861 82.8352 3.22673 82.7431 3.56 82.7431L3.56 80.7431C2.79993 80.7431 2.07138 80.9843 1.55429 81.5999L3.0857 82.8863ZM3.56 82.7431L14.54 82.7431L14.54 80.7431L3.56 80.7431L3.56 82.7431ZM14.54 82.7431C14.8733 82.7431 14.9714 82.8352 15.0143 82.8863L16.5457 81.5999C16.0286 80.9843 15.3001 80.7431 14.54 80.7431L14.54 82.7431ZM15.0021 82.8715C15.1189 83.0161 15.2 83.2121 15.2 83.5231L17.2 83.5231C17.2 82.8208 17.0011 82.1635 16.5579 81.6148L15.0021 82.8715ZM15.2 83.5231C15.2 83.8351 15.1187 84.0156 15.0143 84.1399L16.5457 85.4263C17.0013 84.884 17.2 84.2245 17.2 83.5231L15.2 83.5231ZM15.0021 84.1548C14.9547 84.2134 14.86 84.3031 14.54 84.3031L14.54 86.3031C15.3134 86.3031 16.0453 86.0462 16.5579 85.4115L15.0021 84.1548ZM14.54 84.3031L7.76 84.3031L7.76 86.3031L14.54 86.3031L14.54 84.3031ZM7.0586 86.0159L10.8186 89.7159L12.2214 88.2904L8.46139 84.5904L7.0586 86.0159ZM10.8269 89.724C10.9977 89.8882 11.04 90.0219 11.04 90.1631L13.04 90.1631C13.04 89.4243 12.7357 88.7847 12.2131 88.2823L10.8269 89.724ZM11.04 90.1631C11.04 90.2934 11.0025 90.4129 10.8475 90.5617L12.2325 92.0045C12.7442 91.5133 13.04 90.8862 13.04 90.1631L11.04 90.1631ZM10.8186 90.5906C10.6627 90.753 10.5476 90.7831 10.44 90.7831L10.44 92.7831C11.1591 92.7831 11.7773 92.4799 12.2614 91.9757L10.8186 90.5906ZM10.44 90.7831C10.3406 90.7831 10.2037 90.7526 10.0071 90.556L8.59289 91.9702C9.0896 92.4669 9.71275 92.7831 10.44 92.7831L10.44 90.7831ZM10.0104 90.5593L7.85035 88.3793L6.42964 89.787L8.58964 91.967L10.0104 90.5593ZM6.41849 88.3907L4.03849 90.8707L5.4815 92.2555L7.8615 89.7755L6.41849 88.3907ZM4.79999 102.007L4.18606 101.217L4.17276 101.228L4.15981 101.238L4.79999 102.007ZM2.63999 101.527L1.74557 101.974L1.75234 101.987L1.75952 102.001L2.63999 101.527ZM2.06 99.9066L1.08742 100.139L1.08919 100.147L1.09108 100.154L2.06 99.9066ZM2.45999 95.3466L1.56851 94.8935L2.45999 95.3466ZM4.24 93.4666L4.73452 94.3357L4.24 93.4666ZM9.6 93.4266L10.0768 92.5475L10.0714 92.5446L9.6 93.4266ZM11.42 95.1866L10.5517 95.6827L10.5546 95.6876L11.42 95.1866ZM11.48 100.167L12.3462 100.666L11.48 100.167ZM9.78 101.767L9.32631 100.875L9.31993 100.879L9.31359 100.882L9.78 101.767ZM6.48 102.127L7.12596 101.363L7.12018 101.358L6.48 102.127ZM6.24 96.2466L7.24 96.2466L7.24 95.0901L6.09569 95.257L6.24 96.2466ZM4.54 99.2066L3.56719 99.4382L3.57235 99.4599L3.57847 99.4813L4.54 99.2066ZM4.86 100.147L3.92657 100.506L3.93152 100.518L4.86 100.147ZM5.06 100.727L4.09847 101.001L4.10444 101.022L4.11131 101.043L5.06 100.727ZM9.22 96.7266L8.52952 97.4499L8.53754 97.4576L8.54573 97.465L9.22 96.7266ZM7.92 96.2266L8.01262 95.2309L6.92 95.1292L6.92 96.2266L7.92 96.2266ZM7.92 99.3666L6.92 99.3666L6.92 100.437L7.98802 100.364L7.92 99.3666ZM4.16 101.267C4.16 101.278 4.15892 101.279 4.16021 101.273C4.16159 101.267 4.16473 101.256 4.17076 101.244C4.1768 101.232 4.18341 101.222 4.18831 101.216C4.19296 101.211 4.1935 101.211 4.18606 101.217L5.41394 102.796C5.89998 102.418 6.16 101.879 6.16 101.267L4.16 101.267ZM4.15981 101.238C4.13917 101.256 4.07011 101.307 3.86 101.307L3.86 103.307C4.42321 103.307 4.98082 103.158 5.44018 102.775L4.15981 101.238ZM3.86 101.307C3.76348 101.307 3.71952 101.286 3.69366 101.269C3.66253 101.249 3.59765 101.196 3.52047 101.052L1.75952 102.001C1.96234 102.377 2.2408 102.714 2.61633 102.954C2.99714 103.198 3.42318 103.307 3.86 103.307L3.86 101.307ZM3.53442 101.079C3.34697 100.704 3.17585 100.235 3.02891 99.6592L1.09108 100.154C1.26414 100.832 1.47969 101.442 1.74557 101.974L3.53442 101.079ZM3.03258 99.674C2.90042 99.1213 2.84 98.6337 2.84 98.2066L0.839996 98.2066C0.839996 98.8194 0.926242 99.4651 1.08742 100.139L3.03258 99.674ZM2.84 98.2066C2.84 97.2397 3.0223 96.4474 3.35148 95.7996L1.56851 94.8935C1.07103 95.8724 0.839996 96.9867 0.839996 98.2066L2.84 98.2066ZM3.35148 95.7996C3.67848 95.1562 4.13592 94.6763 4.73452 94.3357L3.74547 92.5974C2.7974 93.1368 2.06818 93.9103 1.56851 94.8935L3.35148 95.7996ZM4.73452 94.3357C5.33342 93.995 6.06388 93.8066 6.96 93.8066L6.96 91.8066C5.77611 91.8066 4.69324 92.0582 3.74547 92.5974L4.73452 94.3357ZM6.96 93.8066C7.8031 93.8066 8.51768 93.982 9.12862 94.3085L10.0714 92.5446C9.13565 92.0445 8.09023 91.8066 6.96 91.8066L6.96 93.8066ZM9.12323 94.3056C9.7533 94.6473 10.2213 95.1044 10.5518 95.6827L12.2882 94.6904C11.7654 93.7754 11.02 93.0591 10.0768 92.5475L9.12323 94.3056ZM10.5546 95.6876C10.8996 96.2835 11.08 96.9617 11.08 97.7466L13.08 97.7466C13.08 96.6381 12.8204 95.6096 12.2854 94.6855L10.5546 95.6876ZM11.08 97.7466C11.08 98.5177 10.9138 99.1469 10.6138 99.6668L12.3462 100.666C12.8462 99.7995 13.08 98.8154 13.08 97.7466L11.08 97.7466ZM10.6138 99.6668C10.3134 100.188 9.89228 100.587 9.32631 100.875L10.2337 102.658C11.1344 102.199 11.8466 101.532 12.3462 100.666L10.6138 99.6668ZM9.31359 100.882C8.749 101.18 8.05491 101.347 7.2 101.347L7.2 103.347C8.31842 103.347 9.34433 103.127 10.2464 102.651L9.31359 100.882ZM7.2 101.347C7.12457 101.347 7.08923 101.337 7.08221 101.335C7.07928 101.334 7.08341 101.335 7.09234 101.34C7.1015 101.345 7.11332 101.353 7.12594 101.363L5.83405 102.89C6.24267 103.236 6.74005 103.347 7.2 103.347L7.2 101.347ZM7.12018 101.358C7.17219 101.402 7.209 101.456 7.22847 101.505C7.2455 101.548 7.24 101.562 7.24 101.527L5.24 101.527C5.24 102 5.39079 102.521 5.83981 102.895L7.12018 101.358ZM7.24 101.527L7.24 96.2466L5.24 96.2466L5.24 101.527L7.24 101.527ZM6.09569 95.257C5.33799 95.3675 4.60812 95.6358 4.10742 96.2081L5.61257 97.5251C5.67187 97.4573 5.862 97.3123 6.3843 97.2361L6.09569 95.257ZM4.10742 96.2081C3.60703 96.7799 3.44 97.5297 3.44 98.2866L5.44 98.2866C5.44 97.7901 5.55296 97.5932 5.61257 97.5251L4.10742 96.2081ZM3.44 98.2866C3.44 98.6859 3.47988 99.0715 3.56719 99.4382L5.5128 98.9749C5.46678 98.7816 5.44 98.5539 5.44 98.2866L3.44 98.2866ZM3.57847 99.4813C3.66847 99.7963 3.78542 100.138 3.92665 100.506L5.79334 99.7876C5.66791 99.4615 5.57153 99.1769 5.50152 98.9318L3.57847 99.4813ZM3.93152 100.518C4.00021 100.69 4.05545 100.851 4.09847 101.001L6.02152 100.452C5.95788 100.229 5.87978 100.003 5.78847 99.7752L3.93152 100.518ZM4.11131 101.043C4.15414 101.171 4.16 101.242 4.16 101.267L6.16 101.267C6.16 100.971 6.09919 100.682 6.00868 100.41L4.11131 101.043ZM10.68 97.8466C10.68 97.1374 10.4353 96.4821 9.89427 95.9881L8.54573 97.465C8.61803 97.5311 8.68 97.6223 8.68 97.8466L10.68 97.8466ZM9.91047 96.0032C9.39803 95.5141 8.71821 95.2965 8.01262 95.2309L7.82737 97.2223C8.26845 97.2633 8.4553 97.3791 8.52952 97.4499L9.91047 96.0032ZM6.92 96.2266L6.92 99.3666L8.92 99.3666L8.92 96.2266L6.92 96.2266ZM7.98802 100.364C8.68504 100.317 9.37101 100.135 9.89362 99.6834C10.4517 99.2014 10.68 98.5389 10.68 97.8466L8.68 97.8466C8.68 98.0876 8.61496 98.1451 8.58638 98.1697C8.52231 98.2251 8.32829 98.3364 7.85197 98.3689L7.98802 100.364Z" fill="url(#paint0_linear)"/>
<defs>
<linearGradient id="paint0_linear" x1="24.9537" y1="102.307" x2="-0.787018" y2="3.16756" gradientUnits="userSpaceOnUse">
<stop stop-color="#FF057C"/>
<stop offset="0.568727" stop-color="#8D0B93"/>
<stop offset="1" stop-color="#321575"/>
</linearGradient>
</defs>
</svg>
