<svg width="35" height="35" viewBox="0 0 35 35" fill="none" xmlns="http://www.w3.org/2000/svg">
<ellipse cx="16.8861" cy="10.6138" rx="6.96796" ry="6.96796" stroke="#ECECEC" stroke-width="1.5" stroke-linecap="round" stroke-linejoin="round"/>
<path fill-rule="evenodd" clip-rule="evenodd" d="M5.8334 27.2729C5.83153 26.783 5.94108 26.2992 6.15376 25.8579C6.82119 24.523 8.70334 23.8156 10.2651 23.4952C11.3915 23.2548 12.5334 23.0943 13.6824 23.0147C15.8096 22.8278 17.9491 22.8278 20.0763 23.0147C21.2252 23.0952 22.3671 23.2557 23.4936 23.4952C25.0554 23.8156 26.9375 24.4563 27.6049 25.8579C28.0327 26.7574 28.0327 27.8017 27.6049 28.7012C26.9375 30.1028 25.0554 30.7435 23.4936 31.0505C22.3685 31.3008 21.2262 31.4659 20.0763 31.5444C18.345 31.6912 16.6055 31.7179 14.8704 31.6245C14.4699 31.6245 14.0828 31.6245 13.6824 31.5444C12.5368 31.4669 11.3988 31.3018 10.2785 31.0505C8.70334 30.7435 6.83454 30.1028 6.15376 28.7012C5.94216 28.2548 5.83272 27.7668 5.8334 27.2729Z" stroke="#ECECEC" stroke-width="1.5" stroke-linecap="round" stroke-linejoin="round"/>
</svg>
