<svg width="36" height="36" viewBox="0 0 36 36" fill="none" xmlns="http://www.w3.org/2000/svg">
<path fill-rule="evenodd" clip-rule="evenodd" d="M30.9509 11.5641L30.0356 9.97575C29.2612 8.63175 27.5451 8.1681 26.1993 8.93927V8.93927C25.5586 9.31666 24.7942 9.42373 24.0745 9.23687C23.3549 9.05001 22.7391 8.58456 22.363 7.94317C22.121 7.53549 21.991 7.07115 21.9861 6.5971V6.5971C22.0079 5.83707 21.7211 5.10057 21.1912 4.55538C20.6612 4.01018 19.9331 3.70272 19.1728 3.70303H17.3286C16.5837 3.70303 15.8695 3.99985 15.3441 4.52784C14.8186 5.05583 14.5252 5.77144 14.5288 6.51633V6.51633C14.5067 8.05428 13.2536 9.28941 11.7155 9.28925C11.2414 9.28433 10.7771 9.15431 10.3694 8.91235V8.91235C9.02358 8.14118 7.30748 8.60483 6.5331 9.94883L5.55047 11.5641C4.77703 12.9064 5.23437 14.6215 6.57348 15.4004V15.4004C7.44393 15.903 7.98015 16.8317 7.98015 17.8368C7.98015 18.8419 7.44393 19.7707 6.57348 20.2732V20.2732C5.23607 21.0469 4.77823 22.7578 5.55047 24.0961V24.0961L6.47926 25.6979C6.84208 26.3526 7.45084 26.8357 8.17083 27.0403C8.89081 27.245 9.66266 27.1542 10.3156 26.7882V26.7882C10.9574 26.4137 11.7223 26.3111 12.4402 26.5032C13.158 26.6953 13.7694 27.1662 14.1384 27.8113C14.3804 28.2189 14.5104 28.6833 14.5153 29.1573V29.1573C14.5153 30.7111 15.7749 31.9706 17.3286 31.9706H19.1728C20.7213 31.9707 21.9786 30.7193 21.9861 29.1708V29.1708C21.9825 28.4236 22.2777 27.7059 22.8061 27.1775C23.3345 26.6491 24.0521 26.3539 24.7994 26.3575C25.2723 26.3702 25.7347 26.4996 26.1454 26.7344V26.7344C27.4878 27.5078 29.2028 27.0505 29.9817 25.7114V25.7114L30.9509 24.0961C31.3261 23.4522 31.429 22.6853 31.237 21.9652C31.045 21.2452 30.5739 20.6314 29.9279 20.2598V20.2598C29.282 19.8882 28.8108 19.2744 28.6188 18.5543C28.4268 17.8343 28.5297 17.0674 28.9049 16.4235C29.1488 15.9975 29.502 15.6444 29.9279 15.4004V15.4004C31.259 14.6219 31.7153 12.9169 30.9509 11.5776V11.5776V11.5641Z" stroke="#ECECEC" stroke-width="1.5" stroke-linecap="round" stroke-linejoin="round"/>
<circle cx="18.2574" cy="17.8368" r="3.8767" stroke="#ECECEC" stroke-width="1.5" stroke-linecap="round" stroke-linejoin="round"/>
</svg>
